<svg width="29" height="242" viewBox="0 0 29 242" fill="none" xmlns="http://www.w3.org/2000/svg">
<path opacity="0.45" d="M35.8389 0.0599438C40.7003 0.0599446 44.6888 3.08303 49.0254 9.16639C53.3619 15.2496 58.0351 24.376 64.2695 36.5531L68.1074 44.0502C69.8584 47.4701 70.7301 49.1721 71.1738 51.0121C71.6175 52.8522 71.6172 54.7645 71.6172 58.6068L71.6172 183.175C71.6172 187.018 71.6175 188.93 71.1738 190.77C70.7301 192.61 69.8583 194.311 68.1074 197.731L64.2695 205.229C58.0351 217.406 53.3618 226.532 49.0253 232.616C44.6887 238.699 40.7003 241.722 35.8388 241.722C30.9774 241.722 26.9889 238.699 22.6523 232.616C18.3158 226.532 13.6426 217.406 7.40816 205.229L3.57027 197.731C1.81947 194.311 0.948547 192.61 0.504846 190.77C0.0611785 188.93 0.0605108 187.018 0.0605115 183.175L0.0605333 58.6068C0.060534 54.7645 0.0612023 52.8522 0.504871 51.0121C0.948578 49.1722 1.81943 47.47 3.5703 44.0502L7.40819 36.5531C13.6426 24.376 18.3159 15.2496 22.6523 9.16639C26.989 3.08302 30.9774 0.0599508 35.8389 0.0599438Z" fill="url(#paint0_linear_33_891)" fill-opacity="0.5" stroke="url(#paint1_linear_33_891)" stroke-width="0.120129"/>
<defs>
<linearGradient id="paint0_linear_33_891" x1="66.0496" y1="120.788" x2="-5.54754" y2="120.788" gradientUnits="userSpaceOnUse">
<stop offset="0.2" stop-color="#BFBFBF" stop-opacity="0"/>
<stop offset="1" stop-color="#BFBFBF"/>
</linearGradient>
<linearGradient id="paint1_linear_33_891" x1="77.2217" y1="120.891" x2="-5.54397" y2="120.891" gradientUnits="userSpaceOnUse">
<stop stop-color="#0C141E"/>
<stop offset="1" stop-color="#9D9D9D"/>
</linearGradient>
</defs>
</svg>
